<svg width="494" height="512" xmlns="http://www.w3.org/2000/svg"><path d="M-.028 512s30.097-129.791 67.915-177.568c0 0 33.954-27.74 50.93-30.051 16.977-2.312 122.708-4.623 122.708-4.623l31.641-38.68h14.662l4.63-62.268-13.891-14.639-6.172-38.528 2.315-17.723h6.945s4.492-50.089 3.857-55.485c-.633-5.393 19.373-63.745 69.536-71.587 50.162-7.845 138.188 41.387 138.188 41.387l-4.754 84.909-9.261 26.2 5.401 1.542s-.771 14.639-6.945 24.655c0 0-8.49 42.382-30.097 43.151l-16.98 49.317-14.662 16.184-11.576 33.902 57.878 70.124 4.63 40.84s33.636 29.953 24.921 78.935h-491.822v.006z" fill="none"/></svg>